<svg width="512" height="512" viewBox="0 0 512 512" fill="none" xmlns="http://www.w3.org/2000/svg">
<path d="M236.25 60.05C219.55 61.75 212.7 63.05 198.75 67.05C147.4 81.8 105.7 115.3 80.5 162C68.5 184.25 60.4 211.7 58 238.5C57.2 246.75 57.4 266.75 58.25 275.5C59.25 285.45 59.65 287.95 61.8 298.25C68.25 329.15 80.35 355.1 99.8 379.5C108.5 390.45 116.4 398.5 126.8 407.2C150.45 426.9 175.25 439.15 209 447.75C212.45 448.6 231.7 451.5 234.1 451.5H235.5L233.65 448.8C232.6 447.35 230.25 444 228.4 441.4C226.55 438.75 224.75 436.05 224.45 435.3C224 434.35 223.35 433.95 222.05 433.75C218.25 433.15 203 429.35 197.75 427.65C180.2 422 161.35 412.5 147 402.05C137 394.75 124.65 383.25 116 373.2C96.7 350.7 82.95 321.8 77.25 291.5C70.6 256.4 73.95 219.7 86.75 188C93.4 171.45 104.15 153.15 114.35 141C119.9 134.35 132.95 121.2 138.5 116.7C159.75 99.3 184.85 86.85 210.85 80.8C227.6 76.85 238.05 75.8 256.25 76.15C270.7 76.45 276.3 77.05 288.75 79.55C324.15 86.7 357.9 105.6 382.6 132.05C385.5 135.2 389.2 139.3 390.75 141.25C392.3 143.15 393.85 145.05 394.2 145.4C394.7 145.9 395.85 144.85 400.15 140C403.1 136.65 405.5 133.7 405.5 133.4C405.5 132.5 399.35 125.35 392.75 118.55C376.15 101.5 354.15 86.1 332.6 76.55C312.95 67.8 288.45 61.55 267.7 60C259.65 59.4 242.15 59.45 236.25 60.05Z" fill="black"/>
<path d="M442.85 111.701C440.95 112.351 438.15 113.901 436.6 115.051C424.95 123.801 395.05 158.001 369.5 191.751C355.3 210.451 338.6 234.101 326.6 252.501C315.65 269.201 314.65 270.801 308 281.501C304.35 287.401 300.85 293.051 300.25 294.001C298.2 297.201 290.75 309.601 283.25 322.251C279.2 329.101 274.2 337.451 272.25 340.751C270.25 344.051 266.65 350.251 264.25 354.501C254.95 370.851 250.6 377.001 248.5 377.001C246.7 377.001 242.7 373.601 236.85 367.151C227.05 356.301 220.85 351.401 213.95 349.001C204.55 345.701 196.6 348.301 192.95 355.801C190.95 359.951 191.3 367.451 193.7 373.251C195.4 377.351 206.2 394.251 217.55 410.551C220.1 414.251 224.3 420.401 226.9 424.251C239 442.201 245.25 450.351 248.05 451.751C249.9 452.751 257 452.701 268.65 451.701C297.3 449.251 325.85 440.551 348.75 427.251C361.25 420.001 370.7 413.351 380.65 404.801C399.25 388.851 416.6 366.801 427.1 345.751C434.65 330.701 440 315.851 443.45 300.251C448.8 276.351 449.6 248.801 445.75 224.751C442.85 206.951 436.8 186.501 431 174.951L429.35 171.751L427.95 173.501C427.15 174.451 424.65 177.801 422.4 180.901C418.35 186.551 418.35 186.601 418.9 188.451C419.2 189.451 420.6 193.601 422 197.751C425.7 208.651 428.6 221.151 430.35 234.001C431.6 243.151 431.6 269.001 430.35 279.001C427.7 300.051 420.95 321.951 411.7 339.451C393.1 374.601 364.7 402.001 329.5 418.651C312.55 426.651 296.4 431.601 279.5 434.001C269.55 435.401 269.5 435.401 269.5 434.801C269.5 434.251 272.25 428.801 278 418.001C280.1 414.001 283.95 406.701 286.5 401.751C289.05 396.801 295.85 383.751 301.65 372.751C311.65 353.651 313.95 349.251 320.35 337.151C321.9 334.151 324 330.301 325 328.501C326.05 326.701 330.2 319.051 334.25 311.501C338.3 303.951 341.8 297.501 342 297.251C342.2 296.951 343.95 293.801 345.85 290.251C347.8 286.651 352 279.001 355.25 273.251C358.5 267.451 362.55 260.251 364.25 257.251C369.9 247.101 378.1 233.101 386.1 219.951C388.1 216.601 398.35 200.351 401.75 195.101C404.3 191.151 419.1 169.801 426.5 159.351C429.5 155.101 437.85 144.201 446.2 133.501C449.95 128.701 453.5 123.751 454.1 122.551C455.55 119.601 455.6 116.001 454.2 114.201C451.45 110.501 448.2 109.751 442.85 111.701Z" fill="black"/>
<path d="M247.75 183.8C234.3 185.15 223.8 188.85 213 195.95C207.7 199.4 197.65 209.35 194.3 214.4C188.85 222.7 185.05 231.55 183.2 240.5C181.95 246.6 181.7 261.8 182.75 268.05C186.55 290.95 201.05 310.7 221.6 321.05C229.95 325.25 238.1 327.35 249.75 328.25C253.55 328.55 265.2 327.55 268.75 326.6C270.35 326.15 270.5 325.9 281.6 307.25C296.15 282.85 308.15 263.5 317.25 249.75C322.45 241.9 322.55 241.7 322.2 239.5C321.1 231.75 315.85 219.8 310.3 212.45C304.05 204.2 293.8 195.7 284.55 191.05C279.85 188.65 270.4 185.65 265 184.8C259.9 184 251 183.5 247.75 183.8ZM257.85 245.6C264.75 248.8 266.25 258.25 260.85 263.95C258.6 266.3 255.8 267.5 252.35 267.5C242.5 267.55 237.3 255.25 244.15 248.1C248 244.05 252.8 243.2 257.85 245.6Z" fill="black"/>
</svg>
